<svg width="600" height="167" viewBox="0 0 600 167" fill="none" xmlns="http://www.w3.org/2000/svg">
<path d="M342.498 43.3142C346.261 46.7668 348.143 51.161 348.143 56.183C348.143 61.205 346.261 65.5992 342.498 69.0518C338.734 72.5044 334.029 74.3877 328.384 74.3877C322.738 74.3877 318.033 72.5044 314.583 69.0518C310.82 65.5992 309.251 61.205 309.251 56.183C309.251 51.161 311.133 46.7668 314.583 43.3142C318.347 39.8616 322.738 37.9784 328.384 37.9784C334.029 37.9784 338.734 39.5477 342.498 43.3142ZM320.856 48.9639C319.288 50.8472 318.347 53.3582 318.347 56.183C318.347 59.0079 319.288 61.205 320.856 63.0882C322.424 64.9715 324.934 66.227 328.384 66.227C331.52 66.227 334.029 65.2853 335.911 63.0882C337.479 61.205 338.42 58.694 338.42 56.183C338.42 53.3582 337.479 51.161 335.911 48.9639C334.029 47.0807 331.834 45.8252 328.384 45.8252C325.247 46.1391 322.738 47.0807 320.856 48.9639ZM319.288 105.147V82.2345H329.011V96.9865H371.98V105.147H319.288ZM361.003 87.2565V35.7813H370.098V87.2565H361.003Z" fill="#2B398F"/>
<path d="M425.926 92.9062C425.298 92.2784 424.357 91.6507 423.416 90.7091C422.476 89.7675 421.535 88.512 420.28 86.6287C419.339 85.3732 418.712 84.1177 417.771 82.5484C416.83 80.979 416.203 79.7235 416.203 79.0958C415.889 79.7235 415.575 80.979 414.634 82.5484C413.694 84.1177 412.753 85.3732 412.125 86.6287C411.498 87.5703 410.557 88.8258 409.303 90.3952C408.048 91.9646 406.793 92.9062 406.166 93.5339C405.225 92.9062 404.284 91.9646 403.03 90.3952C401.775 88.8258 400.834 87.5703 400.207 86.6287C399.266 85.3732 398.325 84.1177 397.698 82.5484C396.757 80.979 396.13 79.7235 396.13 79.0958C395.816 79.7235 395.189 80.979 394.561 82.5484C393.62 84.1177 392.679 85.3732 391.738 86.6287C390.484 88.1981 389.543 89.7675 388.288 90.7091C387.347 91.6507 386.407 92.5923 385.466 93.2201L379.193 86.3148C380.134 85.6871 381.702 84.1177 383.584 81.9206C385.466 79.7235 387.034 77.2125 388.288 74.7015C389.543 72.1905 390.17 69.3657 390.798 65.9131C391.425 62.4605 391.425 58.694 391.425 55.2414V39.5477H400.834V55.2414C400.834 58.694 401.148 62.4605 401.461 66.227C402.089 69.9934 402.716 73.1322 403.971 75.3293C404.284 76.2709 404.911 77.2125 405.225 77.8403C405.539 78.7819 406.166 79.4096 406.48 80.3513C407.107 79.7235 407.421 78.7819 408.048 77.8403C408.362 76.8986 408.989 76.2709 409.303 75.3293C410.557 72.8183 411.184 69.9934 411.812 66.227C412.125 62.4605 412.439 59.0079 412.439 55.2414V39.5477H421.848V55.2414C421.848 58.694 422.162 62.4605 422.789 65.9131C423.416 69.3657 424.044 72.5044 425.298 74.7015C426.239 77.2125 427.494 79.0958 429.062 80.979C430.63 82.5484 431.571 84.1177 432.512 85.0594L425.926 92.9062ZM442.235 72.1906V107.03H433.139V35.7813H442.235V63.0882H452.272V72.1906H442.235Z" fill="#2B398F"/>
<path d="M491.792 48.0223C495.242 52.7304 497.124 59.3217 497.124 67.4825C497.124 75.3293 495.242 81.9206 491.792 86.6287C488.342 91.3368 483.637 93.8478 477.678 93.8478C471.719 93.8478 467.014 91.3368 463.564 86.6287C460.114 81.9206 458.232 75.3293 458.232 67.4825C458.232 59.3217 460.114 52.7304 463.564 48.0223C467.014 43.3142 471.719 40.8032 477.678 40.8032C483.637 40.8032 488.342 43.3142 491.792 48.0223ZM485.205 54.6136C483.324 50.8472 480.814 48.9639 477.678 48.9639C474.542 48.9639 472.032 50.8472 470.15 54.6136C468.269 58.3801 467.328 62.4605 467.328 67.1686C467.328 71.8767 468.269 76.2709 470.15 80.0374C472.032 83.8039 474.542 85.6871 477.678 85.6871C480.814 85.6871 483.637 83.8039 485.205 80.0374C487.087 76.2709 488.028 72.1906 488.028 67.1686C488.028 62.4605 487.087 58.3801 485.205 54.6136ZM509.356 107.03V35.7813H518.452V107.03H509.356Z" fill="#2B398F"/>
<path d="M595.293 92.592H525.664V100.753H595.293V92.592Z" fill="#2B398F"/>
<path d="M534.762 42.0589H586.514V49.9058H544.172V57.4387H586.2V65.5994H544.172V72.8185H586.827V80.9792H534.762V42.0589Z" fill="#2B398F"/>
<path d="M105.072 139.674C80.9213 120.842 80.9213 89.7682 80.9213 79.4103C80.9213 68.7386 83.1168 58.6947 87.5078 49.5924C91.8988 40.1762 97.858 32.0155 105.385 25.1103C112.913 18.2051 122.009 12.5553 132.359 8.47499C142.709 4.39464 153.687 2.5114 164.978 2.5114C176.583 2.5114 187.246 4.39464 197.283 8.47499C207.32 12.5553 216.102 17.8912 223.943 25.1103C231.47 32.0155 237.429 40.1762 241.82 49.5924C246.211 59.0086 248.407 68.7386 248.407 79.4103V156.937H164.978C130.791 156.937 113.227 146.265 105.072 139.674Z" fill="#2B398F"/>
<path d="M10.6639 54.6139V106.717H0V54.6139H10.6639Z" fill="black"/>
<path d="M21.955 69.6799C23.2096 66.855 25.4051 64.0301 27.6006 61.833C30.1098 59.6359 32.9326 57.7527 36.069 56.4972C39.2054 55.2417 42.9691 54.6139 46.4192 54.6139C50.1829 54.6139 53.633 55.2417 57.0831 56.4972C60.2195 57.7527 63.0423 59.6359 65.5515 61.833C68.0606 64.0301 69.9425 66.5411 71.5107 69.6799C72.7653 72.8186 73.7062 75.9573 73.7062 79.4099V106.717H63.0423V79.4099C63.0423 77.2128 62.7287 75.3296 61.7878 73.7602C60.8468 71.877 59.9059 70.3076 58.3377 69.0521C56.7695 67.7966 55.2012 66.5411 53.0057 65.9134C51.1239 65.2856 48.9284 64.6579 46.7329 64.6579C44.5374 64.6579 42.3419 64.9718 40.46 65.9134C38.5781 66.5411 36.6963 67.7966 35.4417 69.0521C33.8735 70.3076 32.9325 71.877 31.9916 73.7602C31.0507 75.6434 30.737 77.5267 30.737 79.4099V106.717H19.7595V79.4099C19.7595 75.9573 20.3868 72.8186 21.955 69.6799Z" fill="black"/>
<path d="M113.225 54.6139C116.675 54.6139 119.812 55.2417 122.635 56.1833C125.457 57.4388 127.966 59.0082 130.162 60.8914C132.358 62.7746 134.239 65.2856 135.494 67.7966C136.749 70.3076 137.376 73.4463 137.376 76.2712C137.376 79.4099 136.749 82.2348 135.494 84.7458C134.239 87.5706 132.358 89.7677 130.162 91.651C127.966 94.162 125.457 95.7313 122.321 96.9868C119.498 98.2423 116.362 98.5562 112.912 98.5562H98.484V116.133H89.0747V76.5851C89.0747 73.4463 89.702 70.6215 90.6429 67.7966C93.7794 59.6359 100.052 57.1249 102.875 55.8694C106.011 54.9278 109.775 54.6139 113.225 54.6139ZM118.871 88.8261C120.753 88.1984 122.321 87.2568 123.575 86.0013C124.83 84.7458 126.085 83.4903 126.712 81.607C127.339 80.0377 127.966 78.1544 127.966 76.2712C127.966 74.3879 127.653 72.8186 126.712 71.2492C126.085 69.6799 124.83 68.1105 123.575 67.1689C122.321 65.9134 120.753 64.9718 118.871 64.344C116.989 63.7163 115.107 63.4024 113.225 63.4024C111.343 63.4024 108.834 63.4024 107.266 64.0301C105.384 64.6579 104.13 65.2856 102.875 66.5411C101.62 67.7966 100.366 69.6799 99.7386 71.2492C99.1113 72.8186 98.7977 74.7018 98.7977 76.5851V89.7677H113.225C115.107 89.7677 116.989 89.4539 118.871 88.8261Z" fill="white"/>
<path d="M185.678 54.6143V63.4027H154.314C153.059 63.4027 151.805 63.7166 150.864 64.6582C149.923 65.5998 149.609 66.5414 149.609 67.7969C149.609 69.0524 149.923 69.9941 150.864 70.9357C151.805 71.8773 153.059 72.1912 154.314 72.1912H173.76C175.641 72.1912 177.523 72.505 179.405 73.1328C181.287 73.7605 182.542 74.7022 184.11 75.9576C185.364 77.2131 186.619 78.4686 187.246 80.038C187.874 81.6074 188.501 83.4906 188.501 85.06C188.501 86.9432 188.187 88.5126 187.246 90.0819C186.619 91.6513 185.364 93.2207 184.11 94.1623C182.855 95.4178 181.287 96.3594 179.405 96.9871C177.523 97.6149 175.641 97.9288 173.76 97.9288H142.082V89.1403H173.76C175.328 89.1403 176.269 88.8264 177.21 87.8848C178.151 86.9432 178.464 86.0016 178.464 84.7461C178.464 83.4906 178.151 82.549 177.21 81.6074C176.269 80.6657 175.014 80.3519 173.76 80.3519H154.314C152.432 80.3519 150.55 80.038 148.668 79.4102C146.786 78.7825 145.532 77.8409 144.277 76.5854C143.023 75.3299 142.082 74.0744 141.141 72.505C140.513 70.9357 139.886 69.0524 139.886 67.4831C139.886 65.5998 140.2 64.0305 141.141 62.4611C141.768 60.8917 143.023 59.6362 144.277 58.3807C145.532 57.1252 147.1 56.1836 148.668 55.5559C150.55 54.9281 152.432 54.6143 154.314 54.6143H185.678Z" fill="white"/>
<path d="M229.587 54.6139V76.5851C229.587 78.4683 229.273 80.0377 228.332 81.9209C227.705 83.4903 226.451 85.0596 225.196 86.3151C223.941 87.5706 222.373 88.5122 220.805 89.14C219.237 89.7677 217.355 90.0816 215.159 90.0816C213.278 90.0816 211.396 89.7677 209.514 89.14C207.632 88.5122 206.377 87.5706 204.809 86.3151C203.555 85.0596 202.614 83.8041 201.673 81.9209C201.045 80.3515 200.418 78.4683 200.418 76.5851V54.6139H191.009V76.5851C191.009 79.7238 191.636 82.5487 192.891 85.0596C194.145 87.8845 195.714 90.0816 197.909 91.9648C200.105 93.8481 202.614 95.4175 205.436 96.6729C208.259 97.9284 211.396 98.2423 214.532 98.2423C217.355 98.2423 219.864 97.9284 222.06 96.9868C224.569 96.3591 226.764 95.1036 228.646 93.5342C228.646 95.4175 228.332 96.9868 227.392 98.5562C226.764 100.126 225.51 101.695 224.255 102.95C223.001 104.206 221.432 105.148 219.864 105.775C218.296 106.403 216.414 106.717 214.219 106.717H190.382V116.133H209.514H214.219C217.669 116.133 220.491 115.505 223.314 114.564C226.137 113.308 228.646 111.739 230.842 109.856C233.037 107.972 234.605 105.461 235.86 102.95C237.114 100.439 237.742 97.6146 237.742 94.4758V54.6139H229.587Z" fill="white"/>
<path d="M287.925 96.9868H283.847C281.652 96.9868 279.456 96.673 277.575 95.7313C275.693 95.1036 273.811 93.8481 272.243 92.5926C270.674 91.3371 269.733 89.7677 268.793 87.8845C267.852 86.0013 267.538 84.118 267.538 81.9209V76.8989V64.6579H284.161V54.6139H267.538V37.037H256.874V54.6139H242.133V64.6579H256.874V81.9209C256.874 85.3735 257.501 88.5123 259.07 91.651C260.324 94.7897 262.52 97.3007 265.029 99.4978C267.538 101.695 270.361 103.578 273.811 104.834C276.947 106.089 280.711 106.717 284.161 106.717H288.238V96.9868H287.925Z" fill="#2B398F"/>
<path d="M311.762 24.4821V1.88325H314.898V24.4821H311.762Z" fill="#58595B"/>
<path d="M318.975 24.4821V7.84683H322.112V10.9856C323.68 8.78845 325.562 7.53296 328.071 7.53296C329.639 7.53296 330.58 7.84683 331.521 8.78845C332.462 9.73007 332.776 10.9856 332.776 12.5549V24.4821H329.639V13.4966C329.639 12.2411 329.326 11.2994 329.012 10.9856C328.698 10.3578 328.071 10.0439 327.13 10.0439C325.248 10.0439 323.68 11.2994 321.798 13.8104V24.4821H318.975Z" fill="#58595B"/>
<path d="M335.912 23.8544V21.0295C337.794 21.9711 339.676 22.5989 340.93 22.5989C341.871 22.5989 342.499 22.285 343.126 21.9711C343.753 21.6573 344.067 21.0295 344.067 20.0879C344.067 19.1463 343.126 18.2046 341.558 17.5769L339.676 16.9492C337.167 16.0075 335.912 14.4382 335.912 12.2411C335.912 10.6717 336.539 9.73007 337.48 8.78845C338.421 7.84683 339.989 7.53296 341.558 7.53296C342.499 7.53296 343.753 7.53296 345.008 7.84683H345.635V10.3578C344.067 9.73007 342.499 9.73007 341.558 9.73007C340.617 9.73007 339.989 10.0439 339.362 10.3578C338.735 10.6717 338.735 11.2994 338.735 11.9272C338.735 12.8688 339.362 13.4965 340.93 14.1243L342.499 14.752C344.067 15.3798 345.321 16.3214 345.949 16.9492C346.576 17.5769 346.89 18.8324 346.89 19.774C346.89 21.3434 346.262 22.285 345.321 23.2266C344.067 24.1682 342.812 24.4821 340.93 24.4821C339.676 24.796 338.108 24.4821 335.912 23.8544Z" fill="#58595B"/>
<path d="M350.655 5.02188V1.88314H353.791V5.02188H350.655ZM350.655 24.482V7.84674H353.791V24.482H350.655Z" fill="#58595B"/>
<path d="M357.867 30.1318L358.181 27.6209C360.063 28.5625 361.631 28.8763 363.199 28.8763C366.649 28.8763 368.217 26.9931 368.217 23.5405V20.7156C367.59 21.9711 366.963 22.5989 366.022 23.2266C365.081 23.8544 364.14 24.1682 362.885 24.1682C361.004 24.1682 359.435 23.5405 358.181 21.9711C356.926 20.4018 356.299 18.5185 356.299 16.0075C356.299 13.4966 356.926 11.2994 358.181 9.73008C359.435 8.16071 361.317 7.21909 363.513 7.21909C365.395 7.21909 366.963 7.84684 368.217 9.41621V7.84684H371.354V19.774C371.354 22.285 371.354 24.1682 371.04 25.4237C370.727 26.6792 370.413 27.6209 369.472 28.5625C368.217 29.818 366.022 30.7596 363.199 30.7596C361.631 30.7596 359.749 30.4457 357.867 30.1318ZM368.531 18.8324V11.9272C367.276 10.6717 365.708 9.73008 364.14 9.73008C362.885 9.73008 361.631 10.3578 361.004 11.2994C360.376 12.5549 359.749 13.8104 359.749 16.0075C359.749 19.4601 361.004 21.3434 363.513 21.3434C365.395 21.3434 366.963 20.7156 368.531 18.8324Z" fill="#58595B"/>
<path d="M375.43 24.4824V0.314137H378.567V10.9858C380.135 8.78871 382.017 7.53322 384.526 7.53322C386.094 7.53322 387.035 7.84709 387.976 8.78871C388.917 9.73033 389.23 10.9858 389.23 12.5552V24.4824H386.094V13.4968C386.094 12.2413 385.78 11.2997 385.467 10.9858C385.153 10.3581 384.526 10.0442 383.585 10.0442C381.703 10.0442 380.135 11.2997 378.253 13.8107V24.4824H375.43Z" fill="#58595B"/>
<path d="M400.211 24.4824C399.27 24.7963 398.329 24.7963 397.701 24.7963C396.133 24.7963 394.879 24.4824 394.251 23.5408C393.31 22.5992 392.997 21.3437 392.997 19.7743V10.0443H390.801V7.84714H392.997V4.70841L396.133 4.39454V7.84714H400.524V10.0443H396.133V19.1466C396.133 21.3437 397.074 22.2853 398.956 22.2853C399.27 22.2853 399.897 22.2853 400.524 21.9714V24.4824H400.211Z" fill="#58595B"/>
<path d="M417.461 24.7958C414.952 24.7958 413.07 24.1681 411.815 22.5987C410.247 21.0294 409.62 18.8322 409.62 16.3213C409.62 13.8103 410.247 11.6132 411.815 10.0438C413.383 8.47443 415.265 7.84669 417.461 7.84669C419.97 7.84669 421.852 8.47443 423.106 10.0438C424.674 11.6132 425.302 13.8103 425.302 16.3213C425.302 18.8322 424.674 21.0294 423.106 22.5987C421.852 24.1681 419.656 24.7958 417.461 24.7958ZM417.461 22.5987C419.029 22.5987 419.97 21.971 420.911 21.0294C421.852 19.7739 422.165 18.2045 422.165 16.3213C422.165 14.438 421.852 12.5548 420.911 11.6132C419.97 10.3577 419.029 10.0438 417.461 10.0438C415.892 10.0438 414.952 10.6715 414.011 11.6132C413.07 12.8687 412.756 14.438 412.756 16.3213C412.756 18.2045 413.07 20.0877 414.011 21.0294C414.638 21.971 415.892 22.5987 417.461 22.5987Z" fill="#58595B"/>
<path d="M428.752 24.4821V10.044H426.557V7.84684H428.752V5.9636C428.752 1.88325 430.634 7.62939e-06 434.084 7.62939e-06C435.025 7.62939e-06 436.279 0.313881 437.534 0.627754V3.13874C436.279 2.82487 435.025 2.51099 434.398 2.51099C433.457 2.51099 432.829 2.82487 432.516 3.13874C432.202 3.76649 431.888 4.39423 431.888 5.64973V7.84684H435.966V10.044H431.888V24.4821H428.752Z" fill="#58595B"/>
<path d="M445.687 30.4457V7.84683H448.824V10.9856C450.078 8.78845 451.96 7.53296 454.469 7.53296C456.351 7.53296 457.919 8.1607 459.174 9.73007C460.429 11.2994 460.742 13.1827 460.742 15.6937C460.742 18.5185 460.115 20.7156 458.86 22.285C457.606 23.8544 455.724 24.796 453.842 24.796C451.96 24.796 450.392 24.1682 448.824 22.5989V30.4457H445.687ZM448.824 20.4018C450.392 21.6573 451.96 22.5989 453.215 22.5989C454.469 22.5989 455.724 21.9711 456.351 20.7156C456.979 19.4601 457.606 17.8908 457.606 15.6937C457.606 11.9272 456.351 9.73007 453.842 9.73007C452.274 9.73007 450.392 10.6717 448.824 12.5549V20.4018Z" fill="#58595B"/>
<path d="M462.937 23.854V21.0291C464.819 21.9707 466.7 22.5985 467.955 22.5985C468.896 22.5985 469.523 22.2846 470.151 21.9707C470.778 21.6569 471.091 21.0291 471.091 20.0875C471.091 19.1459 470.151 18.2042 468.582 17.5765L466.7 16.9488C464.191 16.0071 462.937 14.4378 462.937 12.2407C462.937 10.6713 463.564 9.72967 464.505 8.78805C465.446 7.84643 467.014 7.53256 468.582 7.53256C469.523 7.53256 470.778 7.53256 472.032 7.84643H472.66V10.3574C471.091 9.72967 469.523 9.72967 468.582 9.72967C467.641 9.72967 467.014 10.0435 466.387 10.3574C465.76 10.6713 465.76 11.299 465.76 11.9268C465.76 12.8684 466.387 13.4961 467.955 14.1239L469.523 14.7516C471.091 15.3794 472.346 16.321 472.973 16.9488C473.601 17.5765 473.914 18.832 473.914 19.7736C473.914 21.343 473.287 22.2846 472.346 23.2262C471.091 24.1678 469.837 24.4817 467.955 24.4817C466.387 24.7956 464.819 24.4817 462.937 23.854Z" fill="#58595B"/>
<path d="M478.62 30.4457L481.443 24.4821L475.17 7.84683H478.306L483.011 20.4018L488.029 7.84683H490.852L481.756 30.4457H478.62Z" fill="#58595B"/>
<path d="M503.398 23.8544C501.516 24.4821 499.634 24.796 498.379 24.796C496.184 24.796 494.302 23.8544 492.734 22.285C491.166 20.7156 490.538 18.5185 490.538 16.0075C490.538 13.1827 491.166 11.2994 492.734 9.73007C494.302 8.1607 496.184 7.53296 498.693 7.53296C499.948 7.53296 501.516 7.84683 503.084 8.1607V10.6717C501.516 10.0439 499.948 10.0439 499.007 10.0439C497.439 10.0439 496.184 10.6717 495.243 11.9272C494.302 13.1827 493.988 14.752 493.988 16.6353C493.988 18.5185 494.616 20.0879 495.557 21.0295C496.498 22.285 497.752 22.5989 499.32 22.5989C500.575 22.5989 502.143 22.285 503.711 21.6573V23.8544H503.398Z" fill="#58595B"/>
<path d="M506.221 24.4821V0.313873H509.357V10.9856C510.925 8.78845 512.807 7.53296 515.316 7.53296C516.884 7.53296 517.825 7.84683 518.766 8.78845C519.707 9.73007 520.021 10.9856 520.021 12.5549V24.4821H516.884V13.4965C516.884 12.2411 516.571 11.2994 516.257 10.9856C515.944 10.3578 515.316 10.0439 514.375 10.0439C512.493 10.0439 510.925 11.2994 509.043 13.8104V24.4821H506.221Z" fill="#58595B"/>
<path d="M530.371 24.796C527.862 24.796 525.98 24.1682 524.726 22.5989C523.157 21.0295 522.53 18.8324 522.53 16.3214C522.53 13.8104 523.157 11.6133 524.726 10.0439C526.294 8.47458 528.176 7.84683 530.371 7.84683C532.88 7.84683 534.762 8.47458 536.017 10.0439C537.585 11.6133 538.212 13.8104 538.212 16.3214C538.212 18.8324 537.585 21.0295 536.017 22.5989C534.762 24.1682 532.567 24.796 530.371 24.796ZM530.371 22.5989C531.939 22.5989 532.88 21.9711 533.821 21.0295C534.762 19.774 535.076 18.2046 535.076 16.3214C535.076 14.4382 534.762 12.5549 533.821 11.6133C532.88 10.3578 531.939 10.0439 530.371 10.0439C528.803 10.0439 527.862 10.6717 526.921 11.6133C525.98 12.8688 525.666 14.4382 525.666 16.3214C525.666 18.2046 525.98 20.0879 526.921 21.0295C527.548 21.9711 528.803 22.5989 530.371 22.5989Z" fill="#58595B"/>
<path d="M541.035 24.4821V0.313873H544.171V24.4821H541.035Z" fill="#58595B"/>
<path d="M554.834 24.7958C552.325 24.7958 550.443 24.1681 549.188 22.5987C547.62 21.0294 546.993 18.8322 546.993 16.3213C546.993 13.8103 547.62 11.6132 549.188 10.0438C550.756 8.47443 552.638 7.84669 554.834 7.84669C557.343 7.84669 559.225 8.47443 560.479 10.0438C562.048 11.6132 562.675 13.8103 562.675 16.3213C562.675 18.8322 562.048 21.0294 560.479 22.5987C559.225 24.1681 557.029 24.7958 554.834 24.7958ZM554.834 22.5987C556.402 22.5987 557.343 21.971 558.284 21.0294C559.225 19.7739 559.538 18.2045 559.538 16.3213C559.538 14.438 559.225 12.5548 558.284 11.6132C557.343 10.3577 556.402 10.0438 554.834 10.0438C553.266 10.0438 552.325 10.6715 551.384 11.6132C550.443 12.8687 550.129 14.438 550.129 16.3213C550.129 18.2045 550.443 20.0877 551.384 21.0294C552.011 21.971 553.266 22.5987 554.834 22.5987Z" fill="#58595B"/>
<path d="M565.498 30.132L565.811 27.621C567.693 28.5626 569.261 28.8765 570.83 28.8765C574.28 28.8765 575.848 26.9933 575.848 23.5407V20.7158C575.221 21.9713 574.593 22.599 573.652 23.2268C572.712 23.8545 571.771 24.1684 570.516 24.1684C568.634 24.1684 567.066 23.5407 565.811 21.9713C564.557 20.4019 563.93 18.5187 563.93 16.0077C563.93 13.4967 564.557 11.2996 565.811 9.73023C567.066 8.16087 568.948 7.21925 571.143 7.21925C573.025 7.21925 574.593 7.84699 575.848 9.41636V7.84699H578.984V19.7742C578.984 22.2852 578.984 24.1684 578.671 25.4239C578.357 26.6794 578.044 27.621 577.103 28.5626C575.848 29.8181 573.653 30.7597 570.83 30.7597C569.261 30.7597 567.38 30.4459 565.498 30.132ZM576.162 18.8326V11.9273C574.907 10.6719 573.339 9.73023 571.771 9.73023C570.516 9.73023 569.262 10.358 568.634 11.2996C568.007 12.5551 567.38 13.8106 567.38 16.0077C567.38 19.4603 568.634 21.3435 571.143 21.3435C573.025 21.3435 574.593 20.7158 576.162 18.8326Z" fill="#58595B"/>
<path d="M584.004 30.4457L586.827 24.4821L580.554 7.84683H583.691L588.395 20.4018L593.413 7.84683H596.236L587.141 30.4457H584.004Z" fill="#58595B"/>
<path d="M600 114.564H308.939V115.505H600V114.564Z" fill="#2B398F"/>
<path d="M333.404 134.652C334.031 135.907 334.658 137.163 335.599 138.418C336.54 139.674 337.481 140.615 338.736 141.243C339.99 142.185 341.245 142.812 342.5 143.126C341.872 143.754 341.245 144.382 340.618 145.01C339.99 145.637 339.677 146.265 339.049 146.893C338.422 146.579 337.481 145.951 336.54 145.637C335.599 145.01 334.972 144.696 334.031 143.754C333.09 143.126 332.149 142.185 331.522 141.243C330.581 140.301 329.954 139.36 329.64 138.418C329.327 139.36 328.699 140.301 328.072 141.243C327.445 142.185 326.504 143.126 325.563 144.068C324.622 145.01 323.681 145.637 322.74 146.265C321.799 146.893 320.858 147.52 319.917 147.834C319.604 147.52 318.976 146.893 318.035 146.265C317.408 145.637 316.467 145.009 315.84 144.696C317.408 144.068 318.663 143.126 320.231 142.185C321.485 141.243 322.74 139.988 323.681 138.732C324.622 137.477 325.249 136.221 325.876 134.966C326.504 133.71 326.817 132.141 326.817 130.571V126.177H331.836V130.571C332.463 132.141 332.777 133.396 333.404 134.652ZM324.622 166.353V151.287H351.909V166.353H324.622ZM347.204 155.367H329.327V162.273H347.204V155.367ZM347.204 149.404V125.549H351.909V149.404H347.204Z" fill="black"/>
<path d="M384.214 155.995C383.587 155.995 382.646 156.309 381.391 156.309C380.45 156.309 379.196 156.623 377.628 156.623C376.373 156.623 375.118 156.937 373.55 156.937C371.982 156.937 370.727 157.251 369.473 157.251C369.159 157.251 368.532 157.251 367.277 157.251C366.336 157.251 365.082 157.251 364.141 157.251C362.886 157.251 361.632 157.251 359.75 157.251V139.988H373.864V131.827H359.75V127.433H378.568V144.382H364.455V152.856H370.727C371.668 152.856 372.923 152.856 374.177 152.856C375.432 152.856 376.687 152.542 377.941 152.542C379.196 152.542 380.137 152.229 381.391 152.229C382.332 151.915 383.273 151.915 383.9 151.915V155.995H384.214ZM386.41 166.667V125.235H391.428V166.667H386.41Z" fill="black"/>
<path d="M418.716 127.118C418.716 129.943 418.089 132.768 417.148 134.965C416.207 137.162 414.952 139.359 413.384 141.243C411.816 143.126 409.934 144.695 407.738 145.951C405.543 147.206 403.347 148.462 400.838 149.09C400.525 148.776 400.211 148.148 399.584 147.52C398.956 146.892 398.329 145.951 397.702 145.637C399.897 145.009 401.779 144.381 403.661 143.44C405.543 142.498 407.111 141.243 408.679 139.987C409.934 139.046 410.875 137.79 411.816 136.221C412.757 134.965 413.384 133.396 413.698 131.513H400.211V127.118H418.716ZM403.975 166.353V150.345H431.262V166.353H403.975ZM426.557 154.739H408.993V162.272H426.557V154.739ZM426.557 148.776V139.673H418.402V135.279H426.557V125.235H431.262V148.776H426.557Z" fill="black"/>
<path d="M451.334 141.871C451.647 143.754 452.275 145.323 453.216 146.579C454.157 148.462 455.411 149.718 456.666 151.287C457.92 152.542 459.489 153.798 461.37 154.74C460.743 155.367 460.116 155.995 459.175 156.623C458.548 157.251 457.92 157.878 457.607 158.192C456.666 157.564 456.038 156.937 455.098 156.309C454.157 155.367 453.216 154.74 452.588 153.798C451.647 152.856 450.706 151.915 450.079 150.659C449.452 149.404 448.825 148.462 448.197 147.207C447.884 148.148 447.256 149.404 446.629 150.659C446.002 151.915 445.061 152.856 444.434 154.112C443.493 155.367 442.552 156.309 441.611 157.251C440.67 158.192 439.729 158.82 438.788 159.448C438.161 159.134 437.533 158.506 436.906 157.878C436.279 157.251 435.338 156.623 434.711 156.309C436.593 155.053 438.161 153.798 439.729 152.229C440.984 150.659 442.238 149.09 443.179 147.52C444.12 145.951 444.747 144.068 445.061 142.185C445.375 140.301 445.688 138.418 445.688 136.221V127.433H450.706V136.535C450.706 138.104 451.02 139.988 451.334 141.871ZM468.898 125.235V140.929H474.543V145.323H468.898V166.667H464.193V125.235H468.898Z" fill="black"/>
<path d="M505.596 155.681V143.44H496.814C495.873 144.696 494.618 145.951 493.05 146.579C491.482 147.52 489.913 147.834 488.032 147.834C486.463 147.834 484.895 147.52 483.641 146.893C482.386 146.265 481.131 145.637 480.191 144.382C479.25 143.44 478.622 142.185 477.995 140.929C477.368 139.674 477.054 138.104 477.054 136.535C477.054 134.966 477.368 133.71 477.995 132.141C478.622 130.885 479.25 129.63 480.191 128.688C481.131 127.746 482.386 126.805 483.641 126.177C484.895 125.549 486.463 125.235 488.032 125.235C489.6 125.235 491.168 125.549 492.736 126.177C494.304 126.805 495.245 127.746 496.5 129.002H505.596V124.608H510.3V155.053H505.596V155.681ZM483.641 141.557C484.581 142.812 486.15 143.44 488.032 143.44C489.913 143.44 491.482 142.812 492.423 141.557C493.364 140.301 493.991 138.732 493.991 136.849C493.991 134.966 493.364 133.396 492.423 132.141C491.482 130.885 489.913 130.257 488.032 130.257C486.15 130.257 484.581 130.885 483.641 132.141C482.7 133.396 482.072 134.966 482.072 136.849C482.072 138.732 482.7 140.301 483.641 141.557ZM483.013 166.039V151.915H488.032V161.645H511.555V166.039H483.013ZM505.596 134.024H498.695C498.695 134.338 499.009 134.966 499.009 135.279C499.009 135.907 499.009 136.221 499.009 136.535C499.009 136.849 499.009 137.163 499.009 137.79C499.009 138.104 499.009 138.418 498.695 139.046H505.596V134.024Z" fill="black"/>
<path d="M536.33 149.09V166.981H531.312V149.09H515.316V144.696H541.662C541.975 143.754 542.289 142.813 542.289 141.557C542.603 140.302 542.603 139.36 542.916 138.104C543.23 136.849 543.23 135.593 543.23 134.652C543.23 133.396 543.544 132.455 543.544 131.199H519.393V126.805H548.876C548.876 128.061 548.876 129.63 548.562 131.199C548.562 132.769 548.248 134.338 547.935 136.221C547.621 137.791 547.621 139.36 547.307 140.929C546.994 142.499 546.68 143.754 546.366 145.01H552.639V149.404H536.33V149.09Z" fill="black"/>
<path d="M555.15 162.273V157.878H571.459V148.776H576.478V157.878H592.787V162.273H555.15ZM577.732 135.593C578.673 137.163 579.614 138.732 581.182 140.301C582.437 141.557 584.005 142.812 585.887 143.754C587.769 144.696 589.337 145.323 591.219 145.951C590.591 146.579 589.964 147.207 589.337 147.834C588.71 148.462 588.396 149.09 587.769 149.718C586.514 149.404 585.26 148.776 583.691 147.834C582.437 147.207 580.869 146.265 579.614 145.01C578.359 144.068 577.105 142.812 576.164 141.871C575.223 140.615 574.282 139.36 573.655 138.104C573.027 139.36 572.087 140.615 571.146 141.871C570.205 143.126 568.95 144.068 568.009 145.01C566.755 145.951 565.5 146.893 563.932 147.834C562.677 148.462 561.109 149.09 559.541 149.718C559.227 149.09 558.6 148.776 557.973 147.834C557.345 147.207 556.718 146.579 556.091 145.637C558.286 145.01 560.168 144.382 562.05 143.126C563.932 142.185 565.5 140.929 566.755 139.36C568.009 138.104 568.95 136.535 569.891 134.966C570.518 133.396 571.146 131.513 571.146 129.63V126.177H576.478V129.63C576.478 132.141 577.105 134.024 577.732 135.593Z" fill="black"/>
</svg>
