<svg width="84" height="45" viewBox="0 0 84 45" fill="none" xmlns="http://www.w3.org/2000/svg">
<path d="M30.3557 39.627C23.3785 34.1862 23.3785 25.2089 23.3785 22.2165C23.3785 19.1334 24.0128 16.2316 25.2814 13.6019C26.5499 10.8815 28.2716 8.52388 30.4463 6.52893C32.621 4.53398 35.2488 2.90175 38.239 1.72291C41.2293 0.544078 44.4007 0 47.6628 0C51.0155 0 54.0964 0.544078 56.996 1.72291C59.8956 2.90175 62.4328 4.4433 64.6981 6.52893C66.8728 8.52388 68.5945 10.8815 69.863 13.6019C71.1316 16.3223 71.7659 19.1334 71.7659 22.2165V44.6143H47.6628C37.786 44.6143 32.7116 41.5312 30.3557 39.627Z" fill="#2B398F"/>
<path d="M3.08085 15.0527V30.1055H0V15.0527H3.08085Z" fill="black"/>
<path d="M6.34285 19.4053C6.7053 18.5892 7.3396 17.7731 7.97389 17.1383C8.69879 16.5036 9.51431 15.9595 10.4204 15.5968C11.3266 15.234 12.4139 15.0527 13.4107 15.0527C14.498 15.0527 15.4948 15.234 16.4915 15.5968C17.3977 15.9595 18.2132 16.5036 18.9381 17.1383C19.663 17.7731 20.2067 18.4985 20.6597 19.4053C21.0222 20.3121 21.294 21.2189 21.294 22.2164V30.1055H18.2132V22.2164C18.2132 21.5816 18.1226 21.0375 17.8507 20.5841C17.5789 20.0401 17.307 19.5867 16.854 19.2239C16.4009 18.8612 15.9479 18.4985 15.3136 18.3172C14.7699 18.1358 14.1356 17.9544 13.5013 17.9544C12.867 17.9544 12.2327 18.0451 11.689 18.3172C11.1453 18.4985 10.6017 18.8612 10.2392 19.2239C9.78615 19.5867 9.51431 20.0401 9.24247 20.5841C8.97063 21.1282 8.88002 21.6723 8.88002 22.2164V30.1055H5.70856V22.2164C5.70856 21.2189 5.88978 20.3121 6.34285 19.4053Z" fill="black"/>
<path d="M32.7115 15.0527C33.7083 15.0527 34.6144 15.234 35.4299 15.5061C36.2454 15.8688 36.9704 16.3222 37.6046 16.8663C38.2389 17.4104 38.7826 18.1358 39.1451 18.8612C39.5075 19.5867 39.6887 20.4935 39.6887 21.3096C39.6887 22.2164 39.5075 23.0325 39.1451 23.7579C38.7826 24.574 38.2389 25.2088 37.6046 25.7529C36.9704 26.4783 36.2454 26.9317 35.3393 27.2944C34.5238 27.6571 33.6177 27.7478 32.6209 27.7478H28.4527V32.8259H25.7343V21.4003C25.7343 20.4935 25.9155 19.6773 26.1874 18.8612C27.0935 16.5036 28.9058 15.7781 29.7213 15.4154C30.6274 15.1434 31.7148 15.0527 32.7115 15.0527ZM34.3426 24.9368C34.8862 24.7554 35.3393 24.4834 35.7018 24.1206C36.0642 23.7579 36.4267 23.3952 36.6079 22.8511C36.7891 22.3977 36.9703 21.8537 36.9703 21.3096C36.9703 20.7655 36.8797 20.3121 36.6079 19.8587C36.4267 19.4053 36.0642 18.9519 35.7018 18.6799C35.3393 18.3172 34.8862 18.0451 34.3426 17.8638C33.7989 17.6824 33.2552 17.5917 32.7115 17.5917C32.1678 17.5917 31.4429 17.5917 30.9899 17.7731C30.4462 17.9544 30.0837 18.1358 29.7213 18.4985C29.3588 18.8612 28.9964 19.4053 28.8152 19.8587C28.6339 20.3121 28.5433 20.8562 28.5433 21.4003V25.2088H32.7115C33.2552 25.2088 33.7989 25.1181 34.3426 24.9368Z" fill="white"/>
<path d="M53.6433 15.0527V17.5917H44.582C44.2196 17.5917 43.8571 17.6824 43.5853 17.9544C43.3134 18.2265 43.2228 18.4985 43.2228 18.8612C43.2228 19.2239 43.3134 19.496 43.5853 19.768C43.8571 20.0401 44.2196 20.1307 44.582 20.1307H50.2C50.7437 20.1307 51.2874 20.2214 51.8311 20.4028C52.3748 20.5841 52.7372 20.8562 53.1903 21.2189C53.5527 21.5816 53.9152 21.9443 54.0964 22.3977C54.2776 22.8511 54.4589 23.3952 54.4589 23.8486C54.4589 24.3927 54.3683 24.8461 54.0964 25.2995C53.9152 25.7529 53.5527 26.2063 53.1903 26.4783C52.8278 26.841 52.3748 27.1131 51.8311 27.2944C51.2874 27.4758 50.7437 27.5665 50.2 27.5665H41.0481V25.0274H50.2C50.6531 25.0274 50.925 24.9368 51.1968 24.6647C51.4686 24.3927 51.5592 24.1206 51.5592 23.7579C51.5592 23.3952 51.4686 23.1232 51.1968 22.8511C50.925 22.5791 50.5625 22.4884 50.2 22.4884H44.582C44.0383 22.4884 43.4947 22.3977 42.951 22.2164C42.4073 22.035 42.0449 21.763 41.6824 21.4003C41.32 21.0375 41.0481 20.6748 40.7763 20.2214C40.595 19.768 40.4138 19.2239 40.4138 18.7706C40.4138 18.2265 40.5044 17.7731 40.7763 17.3197C40.9575 16.8663 41.32 16.5036 41.6824 16.1408C42.0449 15.7781 42.4979 15.5061 42.951 15.3247C43.4947 15.1434 44.0383 15.0527 44.582 15.0527H53.6433Z" fill="white"/>
<path d="M66.3285 15.0527V21.4003C66.3285 21.9443 66.2379 22.3977 65.9661 22.9418C65.7849 23.3952 65.4224 23.8486 65.06 24.2113C64.6975 24.574 64.2444 24.8461 63.7914 25.0274C63.3383 25.2088 62.7946 25.2995 62.1603 25.2995C61.6167 25.2995 61.073 25.2088 60.5293 25.0274C59.9856 24.8461 59.6232 24.574 59.1701 24.2113C58.8076 23.8486 58.5358 23.4859 58.264 22.9418C58.0827 22.4884 57.9015 21.9443 57.9015 21.4003V15.0527H55.1831V21.4003C55.1831 22.3071 55.3643 23.1232 55.7268 23.8486C56.0892 24.6647 56.5423 25.2995 57.1766 25.8436C57.8109 26.3876 58.5358 26.841 59.3513 27.2038C60.1668 27.5665 61.073 27.6571 61.9791 27.6571C62.7946 27.6571 63.5195 27.5665 64.1538 27.2944C64.8787 27.1131 65.513 26.7504 66.0567 26.297C66.0567 26.841 65.9661 27.2944 65.6942 27.7478C65.513 28.2012 65.1506 28.6546 64.7881 29.0173C64.4257 29.3801 63.9726 29.6521 63.5195 29.8335C63.0665 30.0148 62.5228 30.1055 61.8885 30.1055H55.0019V32.8259H60.5293H61.8885C62.8852 32.8259 63.7008 32.6445 64.5163 32.3725C65.3318 32.0098 66.0567 31.5564 66.691 31.0123C67.3253 30.4682 67.7783 29.7428 68.1408 29.0173C68.5033 28.2919 68.6845 27.4758 68.6845 26.569V15.0527H66.3285Z" fill="white"/>
<path d="M83.1825 27.2947H82.0046C81.3703 27.2947 80.736 27.204 80.1923 26.9319C79.6486 26.7506 79.1049 26.3879 78.6519 26.0252C78.1988 25.6624 77.927 25.209 77.6551 24.665C77.3833 24.1209 77.2927 23.5768 77.2927 22.942V21.4912V17.9547H82.0952V15.0529H77.2927V9.97487H74.2118V15.0529H69.953V17.9547H74.2118V22.942C74.2118 23.9395 74.3931 24.8463 74.8461 25.7531C75.2086 26.6599 75.8429 27.3853 76.5678 28.0201C77.2927 28.6549 78.1082 29.1989 79.1049 29.5617C80.0111 29.9244 81.0984 30.1057 82.0952 30.1057H83.2731V27.2947H83.1825Z" fill="#2B398F"/>
</svg>
