<svg width="301" height="162" viewBox="0 0 301 162" fill="none" xmlns="http://www.w3.org/2000/svg">
<path d="M109.996 143.704C84.8599 124.103 84.8599 91.761 84.8599 80.9805C84.8599 69.8733 87.145 59.4194 91.7152 49.9456C96.2854 40.1452 102.488 31.6514 110.322 24.4644C118.157 17.2774 127.624 11.3971 138.397 7.15024C149.169 2.90336 160.595 0.943268 172.347 0.943268C184.425 0.943268 195.524 2.90336 205.97 7.15024C216.417 11.3971 225.557 16.9507 233.718 24.4644C241.553 31.6514 247.755 40.1452 252.325 49.9456C256.896 59.7461 259.181 69.8733 259.181 80.9805V161.671H172.347C136.764 161.671 118.484 150.564 109.996 143.704Z" fill="#2B398F"/>
<path d="M11.7356 55.1721V109.401H0.636536V55.1721H11.7356Z" fill="black"/>
<path d="M23.4873 70.8529C24.793 67.9128 27.0781 64.9726 29.3632 62.6858C31.9748 60.3991 34.9128 58.439 38.1772 57.1322C41.4416 55.8255 45.359 55.1721 48.9498 55.1721C52.8672 55.1721 56.458 55.8255 60.0489 57.1322C63.3134 58.439 66.2513 60.3991 68.8629 62.6858C71.4744 64.9726 73.4331 67.5861 75.0653 70.8529C76.3711 74.1197 77.3504 77.3865 77.3504 80.9801V109.401H66.2513V80.9801C66.2513 78.6933 65.9249 76.7332 64.9456 75.0998C63.9662 73.1397 62.9869 71.5063 61.3547 70.1995C59.7225 68.8928 58.0903 67.5861 55.8052 66.9327C53.8465 66.2793 51.5614 65.626 49.2763 65.626C46.9912 65.626 44.7061 65.9527 42.7474 66.9327C40.7888 67.5861 38.8301 68.8928 37.5243 70.1995C35.8921 71.5063 34.9128 73.1397 33.9334 75.0998C32.9541 77.0599 32.6277 79.02 32.6277 80.9801V109.401H21.2021V80.9801C21.2021 77.3865 21.855 74.1197 23.4873 70.8529Z" fill="black"/>
<path d="M118.483 55.1721C122.074 55.1721 125.339 55.8255 128.277 56.8055C131.215 58.1123 133.826 59.7457 136.111 61.7058C138.396 63.6659 140.355 66.2793 141.661 68.8928C142.967 71.5063 143.619 74.7731 143.619 77.7132C143.619 80.9801 142.967 83.9202 141.661 86.5337C140.355 89.4738 138.396 91.7606 136.111 93.7207C133.826 96.3341 131.215 97.9675 127.95 99.2743C125.012 100.581 121.748 100.908 118.157 100.908H103.14V119.202H93.3471V78.0399C93.3471 74.7731 94 71.8329 94.9793 68.8928C98.2438 60.3991 104.773 57.7856 107.711 56.4789C110.975 55.4988 114.892 55.1721 118.483 55.1721ZM124.359 90.7805C126.318 90.1272 127.95 89.1471 129.256 87.8404C130.562 86.5337 131.867 85.2269 132.52 83.2668C133.173 81.6334 133.826 79.6733 133.826 77.7132C133.826 75.7531 133.5 74.1197 132.52 72.4863C131.867 70.8529 130.562 69.2195 129.256 68.2394C127.95 66.9327 126.318 65.9527 124.359 65.2993C122.401 64.6459 120.442 64.3192 118.483 64.3192C116.525 64.3192 113.913 64.3192 112.281 64.9726C110.322 65.626 109.016 66.2793 107.711 67.5861C106.405 68.8928 105.099 70.8529 104.446 72.4863C103.793 74.1197 103.467 76.0798 103.467 78.0399V91.7606H118.483C120.442 91.7606 122.401 91.4339 124.359 90.7805Z" fill="white"/>
<path d="M193.892 55.1721V64.3192H161.248C159.942 64.3192 158.636 64.6459 157.657 65.626C156.678 66.606 156.351 67.5861 156.351 68.8928C156.351 70.1995 156.678 71.1796 157.657 72.1596C158.636 73.1397 159.942 73.4664 161.248 73.4664H181.487C183.446 73.4664 185.405 73.793 187.363 74.4464C189.322 75.0998 190.628 76.0798 192.26 77.3865C193.566 78.6933 194.872 80 195.524 81.6334C196.177 83.2668 196.83 85.2269 196.83 86.8603C196.83 88.8204 196.504 90.4538 195.524 92.0873C194.872 93.7207 193.566 95.3541 192.26 96.3341C190.954 97.6409 189.322 98.6209 187.363 99.2743C185.405 99.9276 183.446 100.254 181.487 100.254H148.517V91.1072H181.487C183.12 91.1072 184.099 90.7805 185.078 89.8005C186.058 88.8204 186.384 87.8404 186.384 86.5337C186.384 85.2269 186.058 84.2469 185.078 83.2668C184.099 82.2868 182.793 81.9601 181.487 81.9601H161.248C159.289 81.9601 157.331 81.6334 155.372 80.98C153.413 80.3267 152.107 79.3466 150.802 78.0399C149.496 76.7332 148.517 75.4265 147.537 73.793C146.884 72.1596 146.231 70.1995 146.231 68.5661C146.231 66.606 146.558 64.9726 147.537 63.3392C148.19 61.7058 149.496 60.3991 150.802 59.0923C152.107 57.7856 153.74 56.8056 155.372 56.1522C157.331 55.4988 159.289 55.1721 161.248 55.1721H193.892Z" fill="white"/>
<path d="M239.592 55.1721V78.0399C239.592 80 239.266 81.6334 238.286 83.5935C237.633 85.2269 236.328 86.8603 235.022 88.1671C233.716 89.4738 232.084 90.4538 230.452 91.1072C228.819 91.7606 226.861 92.0873 224.576 92.0873C222.617 92.0873 220.658 91.7606 218.7 91.1072C216.741 90.4538 215.435 89.4738 213.803 88.1671C212.497 86.8603 211.518 85.5536 210.539 83.5935C209.886 81.9601 209.233 80 209.233 78.0399V55.1721H199.44V78.0399C199.44 81.3067 200.092 84.2469 201.398 86.8603C202.704 89.8005 204.336 92.0873 206.621 94.0474C208.906 96.0075 211.518 97.6409 214.456 98.9476C217.394 100.254 220.658 100.581 223.923 100.581C226.861 100.581 229.472 100.254 231.757 99.2743C234.369 98.6209 236.654 97.3142 238.613 95.6808C238.613 97.6409 238.286 99.2743 237.307 100.908C236.654 102.541 235.348 104.175 234.043 105.481C232.737 106.788 231.105 107.768 229.472 108.421C227.84 109.075 225.881 109.401 223.596 109.401H198.787V119.202H218.7H223.596C227.187 119.202 230.125 118.549 233.063 117.569C236.001 116.262 238.613 114.628 240.898 112.668C243.183 110.708 244.815 108.095 246.121 105.481C247.427 102.868 248.08 99.9276 248.08 96.6608V55.1721H239.592Z" fill="white"/>
<path d="M300.31 99.2751H296.066C293.781 99.2751 291.496 98.9484 289.537 97.9684C287.579 97.315 285.62 96.0083 283.988 94.7016C282.356 93.3948 281.376 91.7614 280.397 89.8013C279.418 87.8412 279.091 85.8811 279.091 83.5943V78.3674V65.6268H296.393V55.173H279.091V36.8788H267.992V55.173H252.649V65.6268H267.992V83.5943C267.992 87.1879 268.645 90.4547 270.277 93.7215C271.583 96.9883 273.868 99.6018 276.48 101.889C279.091 104.175 282.029 106.135 285.62 107.442C288.885 108.749 292.802 109.402 296.393 109.402H300.637V99.2751H300.31Z" fill="#2B398F"/>
</svg>
