<svg xmlns="http://www.w3.org/2000/svg" version="1.1" xmlns:xlink="http://www.w3.org/1999/xlink" xmlns:svgjs="http://svgjs.dev/svgjs" width="256" height="256"><svg width="256" height="256" viewBox="0 0 256 256" fill="none" xmlns="http://www.w3.org/2000/svg">
<rect width="256" height="256" rx="89.6" fill="white"></rect>
<path d="M100.906 169.175C84.1489 156.107 84.1489 134.546 84.1489 127.359C84.1489 119.955 85.6723 112.985 88.7191 106.67C91.7659 100.136 95.9008 94.4734 101.124 89.682C106.347 84.8907 112.658 80.9705 119.84 78.1393C127.022 75.308 134.639 74.0013 142.473 74.0013C150.526 74.0013 157.925 75.308 164.889 78.1393C171.853 80.9705 177.947 84.6729 183.388 89.682C188.611 94.4734 192.746 100.136 195.792 106.67C198.839 113.203 200.363 119.955 200.363 127.359V181.153H142.473C118.752 181.153 106.565 173.748 100.906 169.175Z" fill="#2B398F"></path>
<path d="M35.3994 110.154V146.307H28V110.154H35.3994Z" fill="black"></path>
<path d="M43.2339 120.608C44.1044 118.648 45.6278 116.688 47.1512 115.163C48.8922 113.638 50.8509 112.332 53.0272 111.461C55.2034 110.589 57.815 110.154 60.2089 110.154C62.8205 110.154 65.2144 110.589 67.6083 111.461C69.7846 112.332 71.7432 113.638 73.4843 115.163C75.2253 116.688 76.5311 118.43 77.6192 120.608C78.4897 122.786 79.1426 124.963 79.1426 127.359V146.307H71.7432V127.359C71.7432 125.835 71.5256 124.528 70.8727 123.439C70.2198 122.132 69.567 121.043 68.4788 120.172C67.3907 119.301 66.3025 118.43 64.7791 117.994C63.4733 117.559 61.9499 117.123 60.4265 117.123C58.9031 117.123 57.3797 117.341 56.074 117.994C54.7682 118.43 53.4624 119.301 52.5919 120.172C51.5038 121.043 50.8509 122.132 50.198 123.439C49.5451 124.746 49.3275 126.052 49.3275 127.359V146.307H41.7104V127.359C41.7104 124.963 42.1457 122.786 43.2339 120.608Z" fill="black"></path>
<path d="M106.564 110.154C108.958 110.154 111.135 110.589 113.093 111.243C115.052 112.114 116.793 113.203 118.316 114.51C119.84 115.816 121.146 117.559 122.016 119.301C122.887 121.043 123.322 123.221 123.322 125.181C123.322 127.359 122.887 129.319 122.016 131.062C121.146 133.022 119.84 134.546 118.316 135.853C116.793 137.595 115.052 138.684 112.876 139.555C110.917 140.426 108.741 140.644 106.347 140.644H96.3359V152.84H89.8071V125.399C89.8071 123.221 90.2423 121.261 90.8952 119.301C93.0715 113.638 97.4241 111.896 99.3827 111.025C101.559 110.372 104.171 110.154 106.564 110.154ZM110.482 133.893C111.788 133.457 112.876 132.804 113.746 131.933C114.617 131.062 115.487 130.19 115.923 128.884C116.358 127.795 116.793 126.488 116.793 125.181C116.793 123.875 116.575 122.786 115.923 121.697C115.487 120.608 114.617 119.519 113.746 118.865C112.876 117.994 111.788 117.341 110.482 116.905C109.176 116.47 107.87 116.252 106.564 116.252C105.259 116.252 103.518 116.252 102.43 116.688C101.124 117.123 100.253 117.559 99.3827 118.43C98.5122 119.301 97.6417 120.608 97.2065 121.697C96.7712 122.786 96.5536 124.092 96.5536 125.399V134.546H106.564C107.87 134.546 109.176 134.328 110.482 133.893Z" fill="white"></path>
<path d="M156.837 110.154V116.252H135.074C134.204 116.252 133.333 116.47 132.68 117.123C132.027 117.776 131.81 118.43 131.81 119.301C131.81 120.172 132.027 120.825 132.68 121.479C133.333 122.132 134.204 122.35 135.074 122.35H148.567C149.873 122.35 151.179 122.568 152.485 123.003C153.79 123.439 154.661 124.092 155.749 124.963C156.619 125.835 157.49 126.706 157.925 127.795C158.361 128.884 158.796 130.19 158.796 131.279C158.796 132.586 158.578 133.675 157.925 134.764C157.49 135.853 156.619 136.942 155.749 137.595C154.878 138.466 153.79 139.12 152.485 139.555C151.179 139.991 149.873 140.209 148.567 140.209H126.587V134.111H148.567C149.655 134.111 150.308 133.893 150.961 133.239C151.614 132.586 151.832 131.933 151.832 131.062C151.832 130.19 151.614 129.537 150.961 128.884C150.308 128.23 149.438 128.013 148.567 128.013H135.074C133.768 128.013 132.463 127.795 131.157 127.359C129.851 126.924 128.981 126.27 128.11 125.399C127.24 124.528 126.587 123.657 125.934 122.568C125.499 121.479 125.063 120.172 125.063 119.083C125.063 117.776 125.281 116.688 125.934 115.599C126.369 114.51 127.24 113.638 128.11 112.767C128.981 111.896 130.069 111.243 131.157 110.807C132.463 110.372 133.768 110.154 135.074 110.154H156.837Z" fill="white"></path>
<path d="M187.304 110.154V125.399C187.304 126.706 187.086 127.795 186.433 129.101C185.998 130.19 185.127 131.279 184.257 132.15C183.386 133.022 182.298 133.675 181.21 134.111C180.122 134.546 178.816 134.764 177.293 134.764C175.987 134.764 174.681 134.546 173.375 134.111C172.07 133.675 171.199 133.022 170.111 132.15C169.24 131.279 168.588 130.408 167.935 129.101C167.499 128.013 167.064 126.706 167.064 125.399V110.154H160.535V125.399C160.535 127.577 160.971 129.537 161.841 131.279C162.712 133.239 163.8 134.764 165.323 136.071C166.847 137.377 168.588 138.466 170.546 139.338C172.505 140.209 174.681 140.426 176.857 140.426C178.816 140.426 180.557 140.209 182.081 139.555C183.822 139.12 185.345 138.249 186.651 137.16C186.651 138.466 186.433 139.555 185.78 140.644C185.345 141.733 184.474 142.822 183.604 143.693C182.733 144.564 181.645 145.218 180.557 145.653C179.469 146.089 178.163 146.307 176.64 146.307H160.1V152.84H173.375H176.64C179.034 152.84 180.992 152.405 182.951 151.751C184.91 150.88 186.651 149.791 188.174 148.485C189.698 147.178 190.786 145.436 191.656 143.693C192.527 141.951 192.962 139.991 192.962 137.813V110.154H187.304Z" fill="white"></path>
<path d="M227.782 139.556H224.953C223.43 139.556 221.906 139.338 220.601 138.685C219.295 138.249 217.989 137.378 216.901 136.507C215.813 135.636 215.16 134.547 214.507 133.24C213.854 131.933 213.637 130.627 213.637 129.102V125.617V117.124H225.171V110.154H213.637V97.9583H206.237V110.154H196.009V117.124H206.237V129.102C206.237 131.498 206.672 133.676 207.761 135.853C208.631 138.031 210.154 139.774 211.895 141.298C213.636 142.823 215.595 144.129 217.989 145.001C220.165 145.872 222.777 146.307 225.171 146.307H228V139.556H227.782Z" fill="#2B398F"></path>
</svg><style>@media (prefers-color-scheme: light) { :root { filter: none; } }
@media (prefers-color-scheme: dark) { :root { filter: none; } }
</style></svg>